<mxfile host="app.diagrams.net" modified="2021-01-08T12:33:50.255Z" agent="5.0 (X11; Linux x86_64) AppleWebKit/537.36 (KHTML, like Gecko) Chrome/87.0.4280.88 Safari/537.36" etag="MkT0PZDwq1Ysvu9axPK1" version="14.1.8" type="github">
  <diagram id="4QZlB-pvaglf61GNhH7W" name="Page-1">
    <mxGraphModel dx="744" dy="430" grid="1" gridSize="10" guides="1" tooltips="1" connect="1" arrows="1" fold="1" page="1" pageScale="1" pageWidth="850" pageHeight="1100" math="0" shadow="0">
      <root>
        <mxCell id="0" />
        <mxCell id="1" parent="0" />
        <mxCell id="Kp9cbN2UGNNEzcGHd55z-2" value="RESTful&amp;nbsp;&lt;br&gt;API" style="rounded=0;whiteSpace=wrap;html=1;" parent="1" vertex="1">
          <mxGeometry x="170" y="360" width="130" height="110" as="geometry" />
        </mxCell>
        <mxCell id="Kp9cbN2UGNNEzcGHd55z-3" value="" style="shape=internalStorage;whiteSpace=wrap;html=1;backgroundOutline=1;" parent="1" vertex="1">
          <mxGeometry x="590" y="90" width="160" height="180" as="geometry" />
        </mxCell>
        <mxCell id="Kp9cbN2UGNNEzcGHd55z-4" value="" style="shape=card;whiteSpace=wrap;html=1;" parent="1" vertex="1">
          <mxGeometry x="60" y="95" width="140" height="195" as="geometry" />
        </mxCell>
        <mxCell id="Kp9cbN2UGNNEzcGHd55z-6" value="Backend" style="text;html=1;strokeColor=none;fillColor=none;align=center;verticalAlign=middle;whiteSpace=wrap;rounded=0;" parent="1" vertex="1">
          <mxGeometry x="90" y="130" width="80" height="30" as="geometry" />
        </mxCell>
        <mxCell id="Kp9cbN2UGNNEzcGHd55z-10" value="POST method" style="shape=process;whiteSpace=wrap;html=1;backgroundOutline=1;" parent="1" vertex="1">
          <mxGeometry x="70" y="240" width="120" height="60" as="geometry" />
        </mxCell>
        <mxCell id="Kp9cbN2UGNNEzcGHd55z-11" value="GET method" style="shape=process;whiteSpace=wrap;html=1;backgroundOutline=1;" parent="1" vertex="1">
          <mxGeometry x="621" y="200" width="120" height="60" as="geometry" />
        </mxCell>
        <mxCell id="Kp9cbN2UGNNEzcGHd55z-24" value="Frontend" style="text;html=1;strokeColor=none;fillColor=none;align=center;verticalAlign=middle;whiteSpace=wrap;rounded=0;" parent="1" vertex="1">
          <mxGeometry x="636" y="90" width="90" height="30" as="geometry" />
        </mxCell>
        <mxCell id="W2dqD779nzZMkF8vpSR3-1" value="http:.../post/1" style="rounded=0;whiteSpace=wrap;html=1;" vertex="1" parent="1">
          <mxGeometry x="340" y="180" width="120" height="60" as="geometry" />
        </mxCell>
        <mxCell id="W2dqD779nzZMkF8vpSR3-2" value="" style="endArrow=classic;html=1;entryX=0;entryY=0.5;entryDx=0;entryDy=0;exitX=1;exitY=0.5;exitDx=0;exitDy=0;" edge="1" parent="1" source="Kp9cbN2UGNNEzcGHd55z-10">
          <mxGeometry width="50" height="50" relative="1" as="geometry">
            <mxPoint x="290" y="299" as="sourcePoint" />
            <mxPoint x="340" y="212" as="targetPoint" />
            <Array as="points">
              <mxPoint x="290" y="212" />
            </Array>
          </mxGeometry>
        </mxCell>
        <mxCell id="W2dqD779nzZMkF8vpSR3-4" value="" style="endArrow=classic;html=1;entryX=0.566;entryY=0.996;entryDx=0;entryDy=0;entryPerimeter=0;" edge="1" parent="1" target="Kp9cbN2UGNNEzcGHd55z-4">
          <mxGeometry width="50" height="50" relative="1" as="geometry">
            <mxPoint x="170" y="401" as="sourcePoint" />
            <mxPoint x="140" y="330" as="targetPoint" />
            <Array as="points">
              <mxPoint x="139" y="401" />
            </Array>
          </mxGeometry>
        </mxCell>
        <mxCell id="W2dqD779nzZMkF8vpSR3-5" value="" style="endArrow=classic;html=1;entryX=1;entryY=0.5;entryDx=0;entryDy=0;exitX=0;exitY=0.5;exitDx=0;exitDy=0;" edge="1" parent="1" source="Kp9cbN2UGNNEzcGHd55z-11" target="W2dqD779nzZMkF8vpSR3-1">
          <mxGeometry width="50" height="50" relative="1" as="geometry">
            <mxPoint x="490" y="250" as="sourcePoint" />
            <mxPoint x="540" y="200" as="targetPoint" />
            <Array as="points">
              <mxPoint x="560" y="210" />
            </Array>
          </mxGeometry>
        </mxCell>
        <mxCell id="W2dqD779nzZMkF8vpSR3-6" value="Output" style="rounded=0;whiteSpace=wrap;html=1;fillColor=none;" vertex="1" parent="1">
          <mxGeometry x="100" y="177.5" width="60" height="30" as="geometry" />
        </mxCell>
        <mxCell id="W2dqD779nzZMkF8vpSR3-7" value="REST Client" style="whiteSpace=wrap;html=1;aspect=fixed;fillColor=none;" vertex="1" parent="1">
          <mxGeometry x="640" y="152.5" width="86" height="86" as="geometry" />
        </mxCell>
        <mxCell id="W2dqD779nzZMkF8vpSR3-8" value="Display output" style="rounded=0;whiteSpace=wrap;html=1;fillColor=none;" vertex="1" parent="1">
          <mxGeometry x="650" y="120" width="60" height="30" as="geometry" />
        </mxCell>
      </root>
    </mxGraphModel>
  </diagram>
</mxfile>
